<svg width="116" height="140" viewBox="0 0 116 140" fill="none" xmlns="http://www.w3.org/2000/svg">
<path d="M108.622 0H7.24146C5.3209 0 3.479 0.762931 2.12097 2.12097C0.762931 3.479 0 5.3209 0 7.24145V79.656C0 81.5766 0.762931 83.4184 2.12097 84.7765C3.479 86.1345 5.3209 86.8975 7.24146 86.8975H108.622C110.542 86.8975 112.384 86.1345 113.742 84.7765C115.1 83.4184 115.863 81.5766 115.863 79.656V7.24145C115.863 5.3209 115.1 3.479 113.742 2.12097C112.384 0.762931 110.542 0 108.622 0ZM23.5347 67.8886C21.7444 67.8886 19.9944 67.3578 18.5058 66.3631C17.0172 65.3685 15.8571 63.9548 15.172 62.3008C14.4869 60.6468 14.3076 58.8268 14.6568 57.0709C15.0061 55.315 15.8682 53.7022 17.1341 52.4362C18.4001 51.1703 20.0129 50.3082 21.7688 49.9589C23.5247 49.6097 25.3447 49.7889 26.9987 50.4741C28.6527 51.1592 30.0664 52.3193 31.061 53.8079C32.0557 55.2964 32.5865 57.0465 32.5865 58.8368C32.5865 61.2375 31.6329 63.5399 29.9353 65.2374C28.2378 66.9349 25.9354 67.8886 23.5347 67.8886ZM23.5347 38.9228C21.7444 38.9228 19.9944 38.3919 18.5058 37.3973C17.0172 36.4027 15.8571 34.989 15.172 33.335C14.4869 31.681 14.3076 29.8609 14.6568 28.1051C15.0061 26.3492 15.8682 24.7363 17.1341 23.4704C18.4001 22.2045 20.0129 21.3424 21.7688 20.9931C23.5247 20.6438 25.3447 20.8231 26.9987 21.5082C28.6527 22.1933 30.0664 23.3535 31.061 24.8421C32.0557 26.3306 32.5865 28.0807 32.5865 29.871C32.5865 32.2717 31.6329 34.574 29.9353 36.2716C28.2378 37.9691 25.9354 38.9228 23.5347 38.9228ZM81.4664 66.9835H52.5005C51.3002 66.9835 50.149 66.5066 49.3003 65.6578C48.4515 64.8091 47.9746 63.6579 47.9746 62.4575C47.9746 61.2572 48.4515 60.106 49.3003 59.2573C50.149 58.4085 51.3002 57.9316 52.5005 57.9316H81.4664C82.6667 57.9316 83.8179 58.4085 84.6667 59.2573C85.5154 60.106 85.9923 61.2572 85.9923 62.4575C85.9923 63.6579 85.5154 64.8091 84.6667 65.6578C83.8179 66.5066 82.6667 66.9835 81.4664 66.9835ZM95.9493 48.8798H52.5005C51.3002 48.8798 50.149 48.403 49.3003 47.5542C48.4515 46.7054 47.9746 45.5543 47.9746 44.3539C47.9746 43.1536 48.4515 42.0024 49.3003 41.1536C50.149 40.3048 51.3002 39.828 52.5005 39.828H95.9493C97.1496 39.828 98.3008 40.3048 99.1496 41.1536C99.9983 42.0024 100.475 43.1536 100.475 44.3539C100.475 45.5543 99.9983 46.7054 99.1496 47.5542C98.3008 48.403 97.1496 48.8798 95.9493 48.8798ZM95.9493 30.7762H52.5005C51.3002 30.7762 50.149 30.2993 49.3003 29.4506C48.4515 28.6018 47.9746 27.4506 47.9746 26.2503C47.9746 25.0499 48.4515 23.8988 49.3003 23.05C50.149 22.2012 51.3002 21.7244 52.5005 21.7244H95.9493C97.1496 21.7244 98.3008 22.2012 99.1496 23.05C99.9983 23.8988 100.475 25.0499 100.475 26.2503C100.475 27.4506 99.9983 28.6018 99.1496 29.4506C98.3008 30.2993 97.1496 30.7762 95.9493 30.7762Z" fill="url(#paint0_linear_243_6)"/>
<path d="M86.0647 128.319L63.3627 105.581V100.729C63.3627 99.2884 62.7906 97.907 61.772 96.8884C60.7535 95.8699 59.3721 95.2977 57.9316 95.2977C56.4912 95.2977 55.1098 95.8699 54.0913 96.8884C53.0727 97.907 52.5006 99.2884 52.5006 100.729V105.581L29.7986 128.319C29.04 129.078 28.5235 130.046 28.3143 131.098C28.1052 132.151 28.2127 133.243 28.6234 134.234C29.0341 135.226 29.7295 136.074 30.6217 136.671C31.514 137.268 32.5631 137.587 33.6365 137.588C35.0741 137.575 36.4504 137.004 37.4746 135.995L52.5006 120.969V133.967C52.5006 135.407 53.0727 136.789 54.0913 137.807C55.1098 138.826 56.4912 139.398 57.9316 139.398C59.3721 139.398 60.7535 138.826 61.772 137.807C62.7906 136.789 63.3627 135.407 63.3627 133.967V120.969L78.3887 135.995C79.4129 137.004 80.7891 137.575 82.2267 137.588C83.3002 137.587 84.3493 137.268 85.2416 136.671C86.1338 136.074 86.8292 135.226 87.2399 134.234C87.6506 133.243 87.7581 132.151 87.549 131.098C87.3398 130.046 86.8232 129.078 86.0647 128.319Z" fill="url(#paint1_linear_243_6)"/>
<defs>
<linearGradient id="paint0_linear_243_6" x1="67" y1="57.9739" x2="-15.0644" y2="99.9884" gradientUnits="userSpaceOnUse">
<stop stop-color="#2B89D1"/>
<stop offset="1" stop-color="#2ED12B" stop-opacity="0"/>
</linearGradient>
<linearGradient id="paint1_linear_243_6" x1="62.5841" y1="124.719" x2="20.6727" y2="146.411" gradientUnits="userSpaceOnUse">
<stop stop-color="#2B89D1"/>
<stop offset="1" stop-color="#2ED12B" stop-opacity="0"/>
</linearGradient>
</defs>
</svg>
