<svg width="148" height="148" viewBox="0 0 148 148" fill="none" xmlns="http://www.w3.org/2000/svg">
<g filter="url(#filter0_d_243_13)">
<path d="M136.544 0.0751943L119.225 2.88163C102.471 4.95628 86.998 12.9129 75.5643 25.3332L56.1196 46.6221L29.6588 45.0585C28.9582 45.0207 28.2599 45.1674 27.6338 45.484C27.0076 45.8006 26.4755 46.276 26.0906 46.8626L12.74 66.9087C12.4143 67.3931 12.1984 67.9428 12.1073 68.5194C12.0161 69.096 12.052 69.6855 12.2124 70.2468C12.3727 70.808 12.6537 71.3275 13.0357 71.7689C13.4177 72.2103 13.8914 72.5629 14.4239 72.8022L33.227 81.3419L61.9731 110.088L70.5528 128.931C70.7929 129.458 71.1443 129.926 71.5826 130.304C72.0209 130.682 72.5358 130.96 73.092 131.12C73.6481 131.28 74.2323 131.318 74.8044 131.231C75.3765 131.143 75.923 130.933 76.4062 130.615L96.4522 117.184C97.0376 116.791 97.509 116.25 97.8187 115.617C98.1284 114.983 98.2656 114.279 98.2163 113.576L96.4522 87.1151L117.902 67.6704C130.305 56.2571 138.26 40.8156 140.353 24.0903L143.16 6.77056C143.319 5.86308 143.258 4.93068 142.984 4.05128C142.709 3.17187 142.227 2.37102 141.58 1.71562C140.932 1.06022 140.137 0.569308 139.261 0.283926C138.385 -0.00145627 137.454 -0.0730188 136.544 0.0751943ZM104.471 55.6428C102.789 57.3264 100.646 58.4734 98.3125 58.9387C95.979 59.404 93.5599 59.1667 91.3612 58.2568C89.1626 57.3469 87.2833 55.8053 85.961 53.827C84.6387 51.8488 83.9329 49.5228 83.9329 47.1433C83.9329 44.7638 84.6387 42.4378 85.961 40.4595C87.2833 38.4813 89.1626 36.9397 91.3612 36.0298C93.5599 35.1199 95.979 34.8826 98.3125 35.3479C100.646 35.8132 102.789 36.9602 104.471 38.6438C106.739 40.883 108.026 43.9311 108.048 47.1184C108.071 50.3058 106.827 53.3717 104.591 55.6428H104.471Z" fill="url(#paint0_linear_243_13)"/>
<path d="M51.91 113.536L29.699 91.3247C29.406 91.0334 29.0097 90.8699 28.5965 90.8699C28.1833 90.8699 27.7869 91.0334 27.4939 91.3247C26.2912 92.4874 24.6073 94.1312 24.046 94.7326C12.3041 106.789 5.20352 122.609 4 139.395C20.7863 138.192 36.6063 131.091 48.6626 119.349C49.264 118.788 50.9077 117.104 52.0704 115.901C52.2307 115.743 52.3551 115.552 52.4349 115.342C52.5147 115.131 52.5482 114.906 52.533 114.682C52.5177 114.457 52.4542 114.238 52.3467 114.041C52.2392 113.843 52.0902 113.671 51.91 113.536Z" fill="url(#paint1_linear_243_13)"/>
</g>
<defs>
<filter id="filter0_d_243_13" x="0" y="0" width="147.246" height="147.395" filterUnits="userSpaceOnUse" color-interpolation-filters="sRGB">
<feFlood flood-opacity="0" result="BackgroundImageFix"/>
<feColorMatrix in="SourceAlpha" type="matrix" values="0 0 0 0 0 0 0 0 0 0 0 0 0 0 0 0 0 0 127 0" result="hardAlpha"/>
<feOffset dy="4"/>
<feGaussianBlur stdDeviation="2"/>
<feComposite in2="hardAlpha" operator="out"/>
<feColorMatrix type="matrix" values="0 0 0 0 0 0 0 0 0 0 0 0 0 0 0 0 0 0 0.25 0"/>
<feBlend mode="normal" in2="BackgroundImageFix" result="effect1_dropShadow_243_13"/>
<feBlend mode="normal" in="SourceGraphic" in2="effect1_dropShadow_243_13" result="shape"/>
</filter>
<linearGradient id="paint0_linear_243_13" x1="147.725" y1="-49.9131" x2="-37.7938" y2="155.463" gradientUnits="userSpaceOnUse">
<stop offset="0.366453" stop-color="#2B89D1"/>
<stop offset="1" stop-color="#2ED12B" stop-opacity="0"/>
</linearGradient>
<linearGradient id="paint1_linear_243_13" x1="54.1935" y1="72.4199" x2="-14.3757" y2="148.397" gradientUnits="userSpaceOnUse">
<stop offset="0.366453" stop-color="#2B89D1"/>
<stop offset="1" stop-color="#2ED12B" stop-opacity="0"/>
</linearGradient>
</defs>
</svg>
