<svg width="124" height="132" viewBox="0 0 124 132" fill="none" xmlns="http://www.w3.org/2000/svg">
<path d="M22.1007 109.209V91.013C20.9222 91.193 19.7322 91.2882 18.54 91.2979C16.1339 91.2967 13.7387 90.9733 11.4185 90.3364V109.209C11.4185 112.514 12.7315 115.684 15.0687 118.021C17.4059 120.358 20.5758 121.671 23.8811 121.671H37.5188V110.989H23.8811C23.4089 110.989 22.9561 110.801 22.6222 110.467C22.2883 110.134 22.1007 109.681 22.1007 109.209ZM74.9068 99.7012H53.5422C51.6535 99.7012 49.8421 100.452 48.5066 101.787C47.171 103.123 46.4207 104.934 46.4207 106.823V124.627C46.4207 126.515 47.171 128.327 48.5066 129.662C49.8421 130.998 51.6535 131.748 53.5422 131.748H74.9068C76.7955 131.748 78.6069 130.998 79.9425 129.662C81.278 128.327 82.0283 126.515 82.0283 124.627V106.823C82.0283 104.934 81.278 103.123 79.9425 101.787C78.6069 100.452 76.7955 99.7012 74.9068 99.7012Z" fill="url(#paint0_linear_243_19)"/>
<path d="M53.5421 32.0468H74.9067C76.7954 32.0468 78.6068 31.2965 79.9424 29.961C81.2779 28.6255 82.0282 26.8141 82.0282 24.9253V7.12152C82.0282 5.23277 81.2779 3.42138 79.9424 2.08584C78.6068 0.750295 76.7954 0 74.9067 0H53.5421C51.6534 0 49.842 0.750295 48.5065 2.08584C47.1709 3.42138 46.4206 5.23277 46.4206 7.12152V24.9253C46.4206 26.8141 47.1709 28.6255 48.5065 29.961C49.842 31.2965 51.6534 32.0468 53.5421 32.0468ZM57.7082 44.5095V48.0703C57.7082 49.4868 58.2709 50.8453 59.2726 51.847C60.2743 52.8486 61.6328 53.4114 63.0494 53.4114C64.4659 53.4114 65.8244 52.8486 66.8261 51.847C67.8278 50.8453 68.3905 49.4868 68.3905 48.0703V44.5095C68.3905 43.0929 67.8278 41.7344 66.8261 40.7328C65.8244 39.7311 64.4659 39.1684 63.0494 39.1684C61.6328 39.1684 60.2743 39.7311 59.2726 40.7328C58.2709 41.7344 57.7082 43.0929 57.7082 44.5095V44.5095ZM122.87 61.5656L106.811 45.5065C106.481 45.1701 106.088 44.9024 105.654 44.719C105.22 44.5356 104.754 44.4402 104.283 44.4383C103.812 44.4402 103.346 44.5356 102.912 44.719C102.478 44.9024 102.085 45.1701 101.755 45.5065L88.7224 58.7169H35.8808C34.6005 54.5118 31.8523 50.9066 28.1368 48.5577C24.4213 46.2089 19.9857 45.2728 15.6379 45.92C11.2901 46.5672 7.31951 48.7546 4.44922 52.0838C1.57894 55.4129 0 59.6624 0 64.058C0 68.4537 1.57894 72.7032 4.44922 76.0323C7.31951 79.3615 11.2901 81.5489 15.6379 82.1961C19.9857 82.8433 24.4213 81.9073 28.1368 79.5584C31.8523 77.2096 34.6005 73.6043 35.8808 69.3992H88.7224L101.933 82.6452C102.266 82.9752 102.66 83.2364 103.094 83.4136C103.528 83.5908 103.992 83.6806 104.461 83.6778C104.93 83.6806 105.394 83.5908 105.828 83.4136C106.262 83.2364 106.656 82.9752 106.989 82.6452L123.048 66.5862C123.688 65.8958 124.029 64.98 123.995 64.0391C123.962 63.0982 123.557 62.2089 122.87 61.5656V61.5656ZM62.3372 78.3367C60.9206 78.3367 59.5621 78.8994 58.5604 79.9011C57.5588 80.9027 56.9961 82.2613 56.9961 83.6778V87.2386C56.9961 88.6552 57.5588 90.0137 58.5604 91.0154C59.5621 92.0171 60.9206 92.5797 62.3372 92.5797C63.7538 92.5797 65.1123 92.0171 66.114 91.0154C67.1156 90.0137 67.6783 88.6552 67.6783 87.2386V83.6778C67.6786 82.2796 67.1306 80.937 66.1519 79.9383C65.1732 78.9397 63.842 78.3647 62.444 78.3367H62.3372Z" fill="url(#paint1_linear_243_19)"/>
<defs>
<linearGradient id="paint0_linear_243_19" x1="67.7935" y1="98.5089" x2="33.4032" y2="151.308" gradientUnits="userSpaceOnUse">
<stop offset="0.257649" stop-color="#2B89D1"/>
<stop offset="1" stop-color="#2ED12B" stop-opacity="0"/>
</linearGradient>
<linearGradient id="paint1_linear_243_19" x1="99" y1="18.2703" x2="16.396" y2="117.891" gradientUnits="userSpaceOnUse">
<stop offset="0.257649" stop-color="#2B89D1"/>
<stop offset="1" stop-color="#2ED12B" stop-opacity="0"/>
</linearGradient>
</defs>
</svg>
